<mxfile host="app.diagrams.net" agent="Mozilla/5.0 (X11; Linux x86_64) AppleWebKit/537.36 (KHTML, like Gecko) Chrome/126.0.0.0 Safari/537.36" version="24.7.12">
  <diagram name="complete-graphs" id="rmKykRp29iofeRrYFJwU">
    <mxGraphModel dx="1070" dy="758" grid="1" gridSize="10" guides="1" tooltips="1" connect="1" arrows="1" fold="1" page="1" pageScale="1" pageWidth="850" pageHeight="1100" math="0" shadow="0">
      <root>
        <mxCell id="0" />
        <mxCell id="1" parent="0" />
        <mxCell id="eyzVEe4AvvlMpGE6eW_w-1" value="" style="ellipse;whiteSpace=wrap;html=1;aspect=fixed;fillColor=#C2C2C2;strokeColor=#666666;fontColor=#333333;" vertex="1" parent="1">
          <mxGeometry x="50" y="110" width="30" height="30" as="geometry" />
        </mxCell>
        <mxCell id="eyzVEe4AvvlMpGE6eW_w-3" style="edgeStyle=orthogonalEdgeStyle;rounded=0;orthogonalLoop=1;jettySize=auto;html=1;entryX=0.5;entryY=1;entryDx=0;entryDy=0;startArrow=classic;startFill=1;fillColor=#f5f5f5;strokeColor=#0D0D0D;" edge="1" parent="1" source="eyzVEe4AvvlMpGE6eW_w-2" target="eyzVEe4AvvlMpGE6eW_w-1">
          <mxGeometry relative="1" as="geometry" />
        </mxCell>
        <mxCell id="eyzVEe4AvvlMpGE6eW_w-2" value="" style="ellipse;whiteSpace=wrap;html=1;aspect=fixed;fillColor=#C2C2C2;strokeColor=#666666;fontColor=#333333;" vertex="1" parent="1">
          <mxGeometry x="50" y="230" width="30" height="30" as="geometry" />
        </mxCell>
        <mxCell id="eyzVEe4AvvlMpGE6eW_w-4" value="" style="ellipse;whiteSpace=wrap;html=1;aspect=fixed;fillColor=#C2C2C2;strokeColor=#666666;fontColor=#333333;" vertex="1" parent="1">
          <mxGeometry x="220" y="110" width="30" height="30" as="geometry" />
        </mxCell>
        <mxCell id="eyzVEe4AvvlMpGE6eW_w-5" style="rounded=0;orthogonalLoop=1;jettySize=auto;html=1;entryX=0;entryY=1;entryDx=0;entryDy=0;startArrow=classic;startFill=1;fillColor=#f5f5f5;strokeColor=#0D0D0D;" edge="1" parent="1" source="eyzVEe4AvvlMpGE6eW_w-6" target="eyzVEe4AvvlMpGE6eW_w-4">
          <mxGeometry relative="1" as="geometry" />
        </mxCell>
        <mxCell id="eyzVEe4AvvlMpGE6eW_w-8" style="edgeStyle=orthogonalEdgeStyle;rounded=0;orthogonalLoop=1;jettySize=auto;html=1;exitX=1;exitY=0.5;exitDx=0;exitDy=0;startArrow=classic;startFill=1;" edge="1" parent="1" source="eyzVEe4AvvlMpGE6eW_w-6" target="eyzVEe4AvvlMpGE6eW_w-7">
          <mxGeometry relative="1" as="geometry" />
        </mxCell>
        <mxCell id="eyzVEe4AvvlMpGE6eW_w-6" value="" style="ellipse;whiteSpace=wrap;html=1;aspect=fixed;fillColor=#C2C2C2;strokeColor=#666666;fontColor=#333333;" vertex="1" parent="1">
          <mxGeometry x="140" y="230" width="30" height="30" as="geometry" />
        </mxCell>
        <mxCell id="eyzVEe4AvvlMpGE6eW_w-9" style="rounded=0;orthogonalLoop=1;jettySize=auto;html=1;exitX=0.5;exitY=0;exitDx=0;exitDy=0;entryX=1;entryY=1;entryDx=0;entryDy=0;startArrow=classic;startFill=1;" edge="1" parent="1" source="eyzVEe4AvvlMpGE6eW_w-7" target="eyzVEe4AvvlMpGE6eW_w-4">
          <mxGeometry relative="1" as="geometry" />
        </mxCell>
        <mxCell id="eyzVEe4AvvlMpGE6eW_w-7" value="" style="ellipse;whiteSpace=wrap;html=1;aspect=fixed;fillColor=#C2C2C2;strokeColor=#666666;fontColor=#333333;" vertex="1" parent="1">
          <mxGeometry x="290" y="230" width="30" height="30" as="geometry" />
        </mxCell>
        <mxCell id="eyzVEe4AvvlMpGE6eW_w-19" style="edgeStyle=orthogonalEdgeStyle;rounded=0;orthogonalLoop=1;jettySize=auto;html=1;exitX=1;exitY=0.5;exitDx=0;exitDy=0;entryX=0;entryY=0.5;entryDx=0;entryDy=0;startArrow=classic;startFill=1;" edge="1" parent="1" source="eyzVEe4AvvlMpGE6eW_w-10" target="eyzVEe4AvvlMpGE6eW_w-16">
          <mxGeometry relative="1" as="geometry" />
        </mxCell>
        <mxCell id="eyzVEe4AvvlMpGE6eW_w-10" value="" style="ellipse;whiteSpace=wrap;html=1;aspect=fixed;fillColor=#C2C2C2;strokeColor=#666666;fontColor=#333333;" vertex="1" parent="1">
          <mxGeometry x="380" y="110" width="30" height="30" as="geometry" />
        </mxCell>
        <mxCell id="eyzVEe4AvvlMpGE6eW_w-11" style="rounded=0;orthogonalLoop=1;jettySize=auto;html=1;entryX=0.5;entryY=1;entryDx=0;entryDy=0;startArrow=classic;startFill=1;fillColor=#f5f5f5;strokeColor=#0D0D0D;" edge="1" parent="1" source="eyzVEe4AvvlMpGE6eW_w-13" target="eyzVEe4AvvlMpGE6eW_w-10">
          <mxGeometry relative="1" as="geometry" />
        </mxCell>
        <mxCell id="eyzVEe4AvvlMpGE6eW_w-12" style="edgeStyle=orthogonalEdgeStyle;rounded=0;orthogonalLoop=1;jettySize=auto;html=1;exitX=1;exitY=0.5;exitDx=0;exitDy=0;startArrow=classic;startFill=1;" edge="1" parent="1" source="eyzVEe4AvvlMpGE6eW_w-13" target="eyzVEe4AvvlMpGE6eW_w-15">
          <mxGeometry relative="1" as="geometry" />
        </mxCell>
        <mxCell id="eyzVEe4AvvlMpGE6eW_w-17" style="rounded=0;orthogonalLoop=1;jettySize=auto;html=1;exitX=1;exitY=0;exitDx=0;exitDy=0;entryX=0;entryY=1;entryDx=0;entryDy=0;startArrow=classic;startFill=1;" edge="1" parent="1" source="eyzVEe4AvvlMpGE6eW_w-13" target="eyzVEe4AvvlMpGE6eW_w-16">
          <mxGeometry relative="1" as="geometry" />
        </mxCell>
        <mxCell id="eyzVEe4AvvlMpGE6eW_w-13" value="" style="ellipse;whiteSpace=wrap;html=1;aspect=fixed;fillColor=#C2C2C2;strokeColor=#666666;fontColor=#333333;" vertex="1" parent="1">
          <mxGeometry x="380" y="230" width="30" height="30" as="geometry" />
        </mxCell>
        <mxCell id="eyzVEe4AvvlMpGE6eW_w-14" style="rounded=0;orthogonalLoop=1;jettySize=auto;html=1;exitX=0;exitY=0;exitDx=0;exitDy=0;entryX=1;entryY=1;entryDx=0;entryDy=0;startArrow=classic;startFill=1;" edge="1" parent="1" source="eyzVEe4AvvlMpGE6eW_w-15" target="eyzVEe4AvvlMpGE6eW_w-10">
          <mxGeometry relative="1" as="geometry" />
        </mxCell>
        <mxCell id="eyzVEe4AvvlMpGE6eW_w-18" style="edgeStyle=orthogonalEdgeStyle;rounded=0;orthogonalLoop=1;jettySize=auto;html=1;exitX=0.5;exitY=0;exitDx=0;exitDy=0;entryX=0.5;entryY=1;entryDx=0;entryDy=0;startArrow=classic;startFill=1;" edge="1" parent="1" source="eyzVEe4AvvlMpGE6eW_w-15" target="eyzVEe4AvvlMpGE6eW_w-16">
          <mxGeometry relative="1" as="geometry" />
        </mxCell>
        <mxCell id="eyzVEe4AvvlMpGE6eW_w-15" value="" style="ellipse;whiteSpace=wrap;html=1;aspect=fixed;fillColor=#C2C2C2;strokeColor=#666666;fontColor=#333333;" vertex="1" parent="1">
          <mxGeometry x="530" y="230" width="30" height="30" as="geometry" />
        </mxCell>
        <mxCell id="eyzVEe4AvvlMpGE6eW_w-16" value="" style="ellipse;whiteSpace=wrap;html=1;aspect=fixed;fillColor=#C2C2C2;strokeColor=#666666;fontColor=#333333;" vertex="1" parent="1">
          <mxGeometry x="530" y="110" width="30" height="30" as="geometry" />
        </mxCell>
        <mxCell id="eyzVEe4AvvlMpGE6eW_w-21" style="edgeStyle=orthogonalEdgeStyle;rounded=0;orthogonalLoop=1;jettySize=auto;html=1;exitX=1;exitY=0.5;exitDx=0;exitDy=0;entryX=0;entryY=0.5;entryDx=0;entryDy=0;startArrow=classic;startFill=1;" edge="1" parent="1" source="eyzVEe4AvvlMpGE6eW_w-22" target="eyzVEe4AvvlMpGE6eW_w-30">
          <mxGeometry relative="1" as="geometry" />
        </mxCell>
        <mxCell id="eyzVEe4AvvlMpGE6eW_w-32" style="rounded=0;orthogonalLoop=1;jettySize=auto;html=1;exitX=1;exitY=0;exitDx=0;exitDy=0;entryX=0.068;entryY=0.621;entryDx=0;entryDy=0;entryPerimeter=0;startArrow=classic;startFill=1;" edge="1" parent="1" source="eyzVEe4AvvlMpGE6eW_w-22" target="eyzVEe4AvvlMpGE6eW_w-31">
          <mxGeometry relative="1" as="geometry" />
        </mxCell>
        <mxCell id="eyzVEe4AvvlMpGE6eW_w-22" value="" style="ellipse;whiteSpace=wrap;html=1;aspect=fixed;fillColor=#C2C2C2;strokeColor=#666666;fontColor=#333333;" vertex="1" parent="1">
          <mxGeometry x="620" y="130" width="30" height="30" as="geometry" />
        </mxCell>
        <mxCell id="eyzVEe4AvvlMpGE6eW_w-23" style="rounded=0;orthogonalLoop=1;jettySize=auto;html=1;entryX=0.5;entryY=1;entryDx=0;entryDy=0;startArrow=classic;startFill=1;fillColor=#f5f5f5;strokeColor=#0D0D0D;" edge="1" parent="1" source="eyzVEe4AvvlMpGE6eW_w-26" target="eyzVEe4AvvlMpGE6eW_w-22">
          <mxGeometry relative="1" as="geometry" />
        </mxCell>
        <mxCell id="eyzVEe4AvvlMpGE6eW_w-24" style="edgeStyle=orthogonalEdgeStyle;rounded=0;orthogonalLoop=1;jettySize=auto;html=1;exitX=1;exitY=0.5;exitDx=0;exitDy=0;startArrow=classic;startFill=1;" edge="1" parent="1" source="eyzVEe4AvvlMpGE6eW_w-26" target="eyzVEe4AvvlMpGE6eW_w-29">
          <mxGeometry relative="1" as="geometry" />
        </mxCell>
        <mxCell id="eyzVEe4AvvlMpGE6eW_w-25" style="rounded=0;orthogonalLoop=1;jettySize=auto;html=1;exitX=1;exitY=0;exitDx=0;exitDy=0;entryX=0;entryY=1;entryDx=0;entryDy=0;startArrow=classic;startFill=1;" edge="1" parent="1" source="eyzVEe4AvvlMpGE6eW_w-26" target="eyzVEe4AvvlMpGE6eW_w-30">
          <mxGeometry relative="1" as="geometry" />
        </mxCell>
        <mxCell id="eyzVEe4AvvlMpGE6eW_w-26" value="" style="ellipse;whiteSpace=wrap;html=1;aspect=fixed;fillColor=#C2C2C2;strokeColor=#666666;fontColor=#333333;" vertex="1" parent="1">
          <mxGeometry x="660" y="270" width="30" height="30" as="geometry" />
        </mxCell>
        <mxCell id="eyzVEe4AvvlMpGE6eW_w-27" style="rounded=0;orthogonalLoop=1;jettySize=auto;html=1;exitX=0;exitY=0;exitDx=0;exitDy=0;entryX=1;entryY=1;entryDx=0;entryDy=0;startArrow=classic;startFill=1;" edge="1" parent="1" source="eyzVEe4AvvlMpGE6eW_w-29" target="eyzVEe4AvvlMpGE6eW_w-22">
          <mxGeometry relative="1" as="geometry" />
        </mxCell>
        <mxCell id="eyzVEe4AvvlMpGE6eW_w-28" style="rounded=0;orthogonalLoop=1;jettySize=auto;html=1;exitX=0.5;exitY=0;exitDx=0;exitDy=0;entryX=0.5;entryY=1;entryDx=0;entryDy=0;startArrow=classic;startFill=1;" edge="1" parent="1" source="eyzVEe4AvvlMpGE6eW_w-29" target="eyzVEe4AvvlMpGE6eW_w-30">
          <mxGeometry relative="1" as="geometry" />
        </mxCell>
        <mxCell id="eyzVEe4AvvlMpGE6eW_w-29" value="" style="ellipse;whiteSpace=wrap;html=1;aspect=fixed;fillColor=#C2C2C2;strokeColor=#666666;fontColor=#333333;" vertex="1" parent="1">
          <mxGeometry x="830" y="270" width="30" height="30" as="geometry" />
        </mxCell>
        <mxCell id="eyzVEe4AvvlMpGE6eW_w-30" value="" style="ellipse;whiteSpace=wrap;html=1;aspect=fixed;fillColor=#C2C2C2;strokeColor=#666666;fontColor=#333333;" vertex="1" parent="1">
          <mxGeometry x="860" y="130" width="30" height="30" as="geometry" />
        </mxCell>
        <mxCell id="eyzVEe4AvvlMpGE6eW_w-31" value="" style="ellipse;whiteSpace=wrap;html=1;aspect=fixed;fillColor=#C2C2C2;strokeColor=#666666;fontColor=#333333;" vertex="1" parent="1">
          <mxGeometry x="740" y="40" width="30" height="30" as="geometry" />
        </mxCell>
        <mxCell id="eyzVEe4AvvlMpGE6eW_w-33" style="rounded=0;orthogonalLoop=1;jettySize=auto;html=1;exitX=0;exitY=0;exitDx=0;exitDy=0;entryX=0.974;entryY=0.599;entryDx=0;entryDy=0;entryPerimeter=0;startArrow=classic;startFill=1;" edge="1" parent="1" source="eyzVEe4AvvlMpGE6eW_w-30" target="eyzVEe4AvvlMpGE6eW_w-31">
          <mxGeometry relative="1" as="geometry" />
        </mxCell>
        <mxCell id="eyzVEe4AvvlMpGE6eW_w-34" style="rounded=0;orthogonalLoop=1;jettySize=auto;html=1;entryX=0.264;entryY=0.967;entryDx=0;entryDy=0;entryPerimeter=0;startArrow=classic;startFill=1;" edge="1" parent="1" source="eyzVEe4AvvlMpGE6eW_w-26" target="eyzVEe4AvvlMpGE6eW_w-31">
          <mxGeometry relative="1" as="geometry" />
        </mxCell>
        <mxCell id="eyzVEe4AvvlMpGE6eW_w-35" style="rounded=0;orthogonalLoop=1;jettySize=auto;html=1;entryX=0.768;entryY=0.989;entryDx=0;entryDy=0;entryPerimeter=0;startArrow=classic;startFill=1;" edge="1" parent="1" source="eyzVEe4AvvlMpGE6eW_w-29" target="eyzVEe4AvvlMpGE6eW_w-31">
          <mxGeometry relative="1" as="geometry" />
        </mxCell>
        <mxCell id="eyzVEe4AvvlMpGE6eW_w-36" value="&amp;nbsp; People: 2&lt;div&gt;&amp;nbsp; Channels: 1&lt;/div&gt;&lt;div&gt;&amp;nbsp; G(2, 1)&lt;/div&gt;" style="rounded=0;whiteSpace=wrap;html=1;align=left;" vertex="1" parent="1">
          <mxGeometry x="10" y="30" width="120" height="55" as="geometry" />
        </mxCell>
        <mxCell id="eyzVEe4AvvlMpGE6eW_w-37" value="&amp;nbsp; People: 3&lt;div&gt;&amp;nbsp; Channels: 3&lt;/div&gt;&lt;div&gt;&amp;nbsp; G(3, 3)&lt;/div&gt;" style="rounded=0;whiteSpace=wrap;html=1;align=left;" vertex="1" parent="1">
          <mxGeometry x="170" y="280" width="120" height="55" as="geometry" />
        </mxCell>
        <mxCell id="eyzVEe4AvvlMpGE6eW_w-38" value="&amp;nbsp; People: 4&lt;div&gt;&amp;nbsp; Channels: 6&lt;/div&gt;&lt;div&gt;&amp;nbsp; G(4, 6)&lt;/div&gt;" style="rounded=0;whiteSpace=wrap;html=1;align=left;" vertex="1" parent="1">
          <mxGeometry x="410" y="30" width="120" height="55" as="geometry" />
        </mxCell>
        <mxCell id="eyzVEe4AvvlMpGE6eW_w-39" value="&amp;nbsp; People: 5&lt;div&gt;&amp;nbsp; Channels: 10&lt;/div&gt;&lt;div&gt;&amp;nbsp; G(5, 10)&lt;/div&gt;" style="rounded=0;whiteSpace=wrap;html=1;align=left;" vertex="1" parent="1">
          <mxGeometry x="695" y="320" width="120" height="55" as="geometry" />
        </mxCell>
      </root>
    </mxGraphModel>
  </diagram>
</mxfile>
